<svg width="204" height="204" viewBox="0 0 204 204" fill="none" xmlns="http://www.w3.org/2000/svg">
<g filter="url(#filter0_dd)">
<circle cx="104" cy="104" r="76" fill="#FFEDCD"/>
</g>
<path d="M81.588 103.586C81.588 103.586 77.42 108.752 77.92 111.919L75.087 114.419V115.919C75.087 115.919 81.92 118.752 88.42 116.752V119.252L88.587 121.752L91.92 123.085C91.92 123.085 95.753 122.419 96.753 117.085C96.753 117.085 100.753 118.585 102.42 122.919L107.087 122.585C107.087 122.585 107.753 120.085 106.92 118.419L127.42 118.085L129.42 119.919V121.919L130.42 123.085H132.587L134.253 121.252L132.42 114.752L133.92 110.085C133.92 110.085 116.587 120.585 92.587 106.919L90.754 103.085C90.754 103.085 86.92 103.752 87.087 104.752C87.087 104.752 86.253 102.086 81.587 103.586H81.588Z" fill="#9B9B9A"/>
<path d="M92.463 94.638C91.607 96.888 90.63 97.932 89.849 98.724C89.5818 98.9992 89.2226 99.1663 88.8399 99.1932C88.4573 99.2201 88.0781 99.1051 87.775 98.87L86.591 97.944L83.167 102.998C82.9443 103.327 82.6445 103.596 82.2938 103.782C81.943 103.968 81.552 104.065 81.155 104.065C81.155 104.065 78.483 107.336 77.553 110.871C77.293 111.862 76.671 112.721 75.849 113.333L75.468 113.618C75.468 113.618 73.118 115.58 75.923 116.433C75.923 116.433 85.546 119.472 90.879 115.222M109.379 90.305C109.379 90.305 107.555 91.532 106.179 91.794C105.589 91.907 105.017 92.024 104.464 92.144L101.296 91.472C99.725 93.267 97.542 94.122 96.005 94.796M127.963 96.805C125.977 96.805 125.413 96.652 124.293 95.748C123.425 95.0493 122.689 94.2001 122.121 93.241L121.713 92.551C119.072 92.551 116.246 92.231 113.665 91.807M134.254 106.5C131.158 105.346 130.72 102.085 129.696 100.765M88.818 119.745L88.591 120.218C88.4444 120.523 88.3775 120.86 88.3965 121.198C88.4156 121.535 88.52 121.863 88.7 122.149C88.8801 122.436 89.1298 122.672 89.4259 122.835C89.722 122.999 90.0547 123.085 90.393 123.085H92.02C92.3806 123.085 92.7346 122.988 93.0444 122.803C93.3542 122.619 93.6084 122.354 93.78 122.037L96.625 116.774C96.625 116.774 100.126 118.224 101.379 121.81C101.652 122.591 102.428 123.085 103.255 123.085H105.278C105.558 123.086 105.836 123.027 106.092 122.914C106.348 122.8 106.578 122.634 106.766 122.426C106.953 122.217 107.095 121.972 107.182 121.705C107.268 121.439 107.298 121.157 107.268 120.878C107.165 119.95 106.977 118.988 106.635 118.565C106.635 118.565 121.791 119.002 126.642 117.953C127.666 117.731 128.686 118.351 128.912 119.374C129.022 119.87 129.087 120.426 129.054 121.011C128.99 122.151 129.907 123.085 131.048 123.085H131.438C132.562 123.085 133.438 122.285 133.511 121.243C133.634 119.499 133.497 116.851 131.963 114.812C131.963 114.812 133.096 113.82 133.075 110.725M87.21 105.218C87.21 105.218 89.334 101.891 91.23 104.876C92.509 106.891 90.922 109.918 89.755 111.674C89.4861 112.078 89.0856 112.375 88.6218 112.517C88.1579 112.658 87.6594 112.635 87.211 112.45M95.421 102.597L100.421 98.472M99.546 108.12L105.546 106.062M104.921 100.765L110.968 97.972M107.944 111.472L114.796 110.725M116.796 104.633L123.671 105.865M114.944 100.49L120.398 97.987M121.04 111.769L127.301 113.446" stroke="#195557" stroke-width="2" stroke-miterlimit="10" stroke-linecap="round" stroke-linejoin="round"/>
<defs>
<filter id="filter0_dd" x="0" y="0" width="204" height="204" filterUnits="userSpaceOnUse" color-interpolation-filters="sRGB">
<feFlood flood-opacity="0" result="BackgroundImageFix"/>
<feColorMatrix in="SourceAlpha" type="matrix" values="0 0 0 0 0 0 0 0 0 0 0 0 0 0 0 0 0 0 127 0"/>
<feOffset dx="-8" dy="-8"/>
<feGaussianBlur stdDeviation="10"/>
<feColorMatrix type="matrix" values="0 0 0 0 1 0 0 0 0 1 0 0 0 0 1 0 0 0 1 0"/>
<feBlend mode="normal" in2="BackgroundImageFix" result="effect1_dropShadow"/>
<feColorMatrix in="SourceAlpha" type="matrix" values="0 0 0 0 0 0 0 0 0 0 0 0 0 0 0 0 0 0 127 0"/>
<feOffset dx="4" dy="4"/>
<feGaussianBlur stdDeviation="10"/>
<feColorMatrix type="matrix" values="0 0 0 0 0.76 0 0 0 0 0.8 0 0 0 0 0.79375 0 0 0 1 0"/>
<feBlend mode="normal" in2="effect1_dropShadow" result="effect2_dropShadow"/>
<feBlend mode="normal" in="SourceGraphic" in2="effect2_dropShadow" result="shape"/>
</filter>
</defs>
</svg>
