<svg width="28" height="28" viewBox="0 0 28 28" fill="none" xmlns="http://www.w3.org/2000/svg">
<path d="M25.6667 12.3334H15.6667V2.33335C15.6667 1.89133 15.4911 1.4674 15.1785 1.15484C14.8659 0.842282 14.442 0.666687 14 0.666687C13.558 0.666687 13.134 0.842282 12.8215 1.15484C12.5089 1.4674 12.3333 1.89133 12.3333 2.33335V12.3334H2.33332C1.8913 12.3334 1.46737 12.5089 1.15481 12.8215C0.842252 13.1341 0.666656 13.558 0.666656 14C0.666656 14.442 0.842252 14.866 1.15481 15.1785C1.46737 15.4911 1.8913 15.6667 2.33332 15.6667H12.3333V25.6667C12.3333 26.1087 12.5089 26.5326 12.8215 26.8452C13.134 27.1578 13.558 27.3334 14 27.3334C14.442 27.3334 14.8659 27.1578 15.1785 26.8452C15.4911 26.5326 15.6667 26.1087 15.6667 25.6667V15.6667H25.6667C26.1087 15.6667 26.5326 15.4911 26.8452 15.1785C27.1577 14.866 27.3333 14.442 27.3333 14C27.3333 13.558 27.1577 13.1341 26.8452 12.8215C26.5326 12.5089 26.1087 12.3334 25.6667 12.3334Z" fill="#195557"/>
</svg>
